<svg xmlns="http://www.w3.org/2000/svg" width="633" height="314" viewBox="0 0 633 314">
<rect width="100%" height="100%" fill="#fbf8ef"/>
<text x="26.0" y="26.0" font-size="18" font-weight="700" fill="#241f1a">SCR-HOM-ASH-002 - Elara House Interior</text>
<text x="26.0" y="44.0" font-size="11" font-weight="400" fill="#685f55">new_game_start</text>
<rect x="26" y="56" width="306" height="234" fill="#f7f3e7" stroke="#332b25" stroke-width="2"/>
<line x1="26.0" y1="56" x2="26.0" y2="290" stroke="#d8d0bd" stroke-width="0.5"/>
<line x1="44.0" y1="56" x2="44.0" y2="290" stroke="#d8d0bd" stroke-width="0.5"/>
<line x1="62.0" y1="56" x2="62.0" y2="290" stroke="#d8d0bd" stroke-width="0.5"/>
<line x1="80.0" y1="56" x2="80.0" y2="290" stroke="#d8d0bd" stroke-width="0.5"/>
<line x1="98.0" y1="56" x2="98.0" y2="290" stroke="#d8d0bd" stroke-width="0.5"/>
<line x1="116.0" y1="56" x2="116.0" y2="290" stroke="#d8d0bd" stroke-width="0.5"/>
<line x1="134.0" y1="56" x2="134.0" y2="290" stroke="#d8d0bd" stroke-width="0.5"/>
<line x1="152.0" y1="56" x2="152.0" y2="290" stroke="#d8d0bd" stroke-width="0.5"/>
<line x1="170.0" y1="56" x2="170.0" y2="290" stroke="#d8d0bd" stroke-width="0.5"/>
<line x1="188.0" y1="56" x2="188.0" y2="290" stroke="#d8d0bd" stroke-width="0.5"/>
<line x1="206.0" y1="56" x2="206.0" y2="290" stroke="#d8d0bd" stroke-width="0.5"/>
<line x1="224.0" y1="56" x2="224.0" y2="290" stroke="#d8d0bd" stroke-width="0.5"/>
<line x1="242.0" y1="56" x2="242.0" y2="290" stroke="#d8d0bd" stroke-width="0.5"/>
<line x1="260.0" y1="56" x2="260.0" y2="290" stroke="#d8d0bd" stroke-width="0.5"/>
<line x1="278.0" y1="56" x2="278.0" y2="290" stroke="#d8d0bd" stroke-width="0.5"/>
<line x1="296.0" y1="56" x2="296.0" y2="290" stroke="#d8d0bd" stroke-width="0.5"/>
<line x1="314.0" y1="56" x2="314.0" y2="290" stroke="#d8d0bd" stroke-width="0.5"/>
<line x1="332.0" y1="56" x2="332.0" y2="290" stroke="#d8d0bd" stroke-width="0.5"/>
<line x1="26" y1="56.0" x2="332" y2="56.0" stroke="#d8d0bd" stroke-width="0.5"/>
<line x1="26" y1="74.0" x2="332" y2="74.0" stroke="#d8d0bd" stroke-width="0.5"/>
<line x1="26" y1="92.0" x2="332" y2="92.0" stroke="#d8d0bd" stroke-width="0.5"/>
<line x1="26" y1="110.0" x2="332" y2="110.0" stroke="#d8d0bd" stroke-width="0.5"/>
<line x1="26" y1="128.0" x2="332" y2="128.0" stroke="#d8d0bd" stroke-width="0.5"/>
<line x1="26" y1="146.0" x2="332" y2="146.0" stroke="#d8d0bd" stroke-width="0.5"/>
<line x1="26" y1="164.0" x2="332" y2="164.0" stroke="#d8d0bd" stroke-width="0.5"/>
<line x1="26" y1="182.0" x2="332" y2="182.0" stroke="#d8d0bd" stroke-width="0.5"/>
<line x1="26" y1="200.0" x2="332" y2="200.0" stroke="#d8d0bd" stroke-width="0.5"/>
<line x1="26" y1="218.0" x2="332" y2="218.0" stroke="#d8d0bd" stroke-width="0.5"/>
<line x1="26" y1="236.0" x2="332" y2="236.0" stroke="#d8d0bd" stroke-width="0.5"/>
<line x1="26" y1="254.0" x2="332" y2="254.0" stroke="#d8d0bd" stroke-width="0.5"/>
<line x1="26" y1="272.0" x2="332" y2="272.0" stroke="#d8d0bd" stroke-width="0.5"/>
<line x1="26" y1="290.0" x2="332" y2="290.0" stroke="#d8d0bd" stroke-width="0.5"/>
<rect x="62.0" y="92.0" width="234.0" height="162.0" fill="#d9e9c8" fill-opacity="0.58" stroke="none" stroke-width="1"/>
<polyline points="170.0,164.0 170.0,218.0 170.0,272.0" fill="none" stroke="#d9e9c8" stroke-width="4" stroke-linecap="round" stroke-linejoin="round" opacity="0.58"/>
<rect x="80.0" y="110.0" width="54.0" height="36.0" fill="#d9e9c8" fill-opacity="0.58" stroke="none" stroke-width="1"/>
<rect x="242.0" y="110.0" width="36.0" height="36.0" fill="#d9e9c8" fill-opacity="0.58" stroke="none" stroke-width="1"/>
<rect x="62.0" y="92.0" width="234.0" height="180.0" fill="#76a9e0" fill-opacity="0.14" stroke="#76a9e0" stroke-width="1" stroke-dasharray="4 3"/>
<rect x="26.0" y="56.0" width="306.0" height="234.0" fill="#d0b2e8" fill-opacity="0.24" stroke="#d0b2e8" stroke-width="1" stroke-dasharray="5 4"/>
<rect x="62.0" y="182.0" width="54.0" height="54.0" fill="#5b4c42" fill-opacity="0.82" stroke="#2b241f" stroke-width="1"/>
<rect x="206.0" y="182.0" width="54.0" height="36.0" fill="#5b4c42" fill-opacity="0.82" stroke="#2b241f" stroke-width="1"/>
<rect x="44.0" y="74.0" width="270.0" height="18.0" fill="#5b4c42" fill-opacity="0.82" stroke="#2b241f" stroke-width="1"/>
<polyline points="170.0,164.0 170.0,218.0 170.0,272.0" fill="none" stroke="#8a6f47" stroke-width="4" stroke-linecap="round" stroke-linejoin="round" opacity="0.92"/>
<polygon points="170.0,264.0 178.0,279.0 162.0,279.0" fill="#225ea8" stroke="#1b1714" stroke-width="1"/>
<rect x="178.0" y="263.0" width="68.2" height="14" rx="2" fill="#fffaf0" fill-opacity="0.86"/>
<text x="181.0" y="274.0" font-size="10" font-weight="400" fill="#241f1a">TRN-HOM-001</text>
<polygon points="170.0,156.0 178.0,164.0 170.0,172.0 162.0,164.0" fill="#7b2cbf" stroke="#1b1714" stroke-width="1"/>
<rect x="178.0" y="155.0" width="68.2" height="14" rx="2" fill="#fffaf0" fill-opacity="0.86"/>
<text x="181.0" y="166.0" font-size="10" font-weight="400" fill="#241f1a">EVT-HOM-001</text>
<polygon points="170.0,120.0 178.0,128.0 170.0,136.0 162.0,128.0" fill="#7b2cbf" stroke="#1b1714" stroke-width="1"/>
<rect x="178.0" y="119.0" width="68.2" height="14" rx="2" fill="#fffaf0" fill-opacity="0.86"/>
<text x="181.0" y="130.0" font-size="10" font-weight="400" fill="#241f1a">EVT-HOM-002</text>
<polygon points="260.0,120.0 268.0,128.0 260.0,136.0 252.0,128.0" fill="#7b2cbf" stroke="#1b1714" stroke-width="1"/>
<rect x="268.0" y="119.0" width="136.4" height="14" rx="2" fill="#fffaf0" fill-opacity="0.86"/>
<text x="271.0" y="130.0" font-size="10" font-weight="400" fill="#241f1a">INT-ASH-ELARA-KEEPSAKE</text>
<text x="360.0" y="60.0" font-size="16" font-weight="700" fill="#241f1a">Legend</text>
<rect x="360" y="73" width="14" height="14" fill="#d9e9c8" stroke="#1b1714" stroke-width="1"/>
<text x="384.0" y="84.0" font-size="11" font-weight="400" fill="#241f1a">Walkable</text>
<rect x="360" y="95" width="14" height="14" fill="#726658" stroke="#1b1714" stroke-width="1"/>
<text x="384.0" y="106.0" font-size="11" font-weight="400" fill="#241f1a">Blocked</text>
<rect x="360" y="117" width="14" height="14" fill="#eddc91" stroke="#1b1714" stroke-width="1"/>
<text x="384.0" y="128.0" font-size="11" font-weight="400" fill="#241f1a">Conditional</text>
<rect x="360" y="139" width="14" height="14" fill="#76a9e0" fill-opacity="0.25" stroke="#76a9e0" stroke-width="2" stroke-dasharray="3 2"/>
<text x="384.0" y="150.0" font-size="11" font-weight="400" fill="#241f1a">Traversable zone</text>
<rect x="360" y="161" width="14" height="14" fill="#e8a6a1" fill-opacity="0.25" stroke="#e8a6a1" stroke-width="2" stroke-dasharray="3 2"/>
<text x="384.0" y="172.0" font-size="11" font-weight="400" fill="#241f1a">Encounter / special region</text>
<polygon points="367,181 375,195 359,195" fill="#225ea8" stroke="#1b1714" stroke-width="1"/>
<text x="384.0" y="194.0" font-size="11" font-weight="400" fill="#241f1a">Transfer</text>
<circle cx="367" cy="211" r="7" fill="#2a9d8f" stroke="#1b1714" stroke-width="1"/>
<text x="384.0" y="216.0" font-size="11" font-weight="400" fill="#241f1a">NPC</text>
<rect x="361" y="226" width="13" height="13" fill="#c47f00" stroke="#1b1714" stroke-width="1"/>
<text x="384.0" y="238.0" font-size="11" font-weight="400" fill="#241f1a">Treasure</text>
<polygon points="367,246 375,254 367,262 359,254" fill="#7b2cbf" stroke="#1b1714" stroke-width="1"/>
<text x="384.0" y="260.0" font-size="11" font-weight="400" fill="#241f1a">Event anchor</text>
<text x="360.0" y="296.0" font-size="14" font-weight="700" fill="#241f1a">Intent</text>
<text x="360.0" y="314.0" font-size="10" font-weight="400" fill="#685f55">Provide the emotional starting room</text>
<text x="360.0" y="332.0" font-size="10" font-weight="400" fill="#685f55">for Home Island with player start,</text>
<text x="360.0" y="350.0" font-size="10" font-weight="400" fill="#685f55">Elara interaction, and exit to</text>
<text x="360.0" y="368.0" font-size="10" font-weight="400" fill="#685f55">Ashford Exterior.</text>
<text x="360.0" y="396.0" font-size="14" font-weight="700" fill="#241f1a">Visual Tone</text>
<text x="360.0" y="414.0" font-size="10" font-weight="400" fill="#685f55">safe family interior with bed, table</text>
<text x="360.0" y="428.0" font-size="10" font-weight="400" fill="#685f55">or chair, hearth or warm-stone</text>
<text x="360.0" y="442.0" font-size="10" font-weight="400" fill="#685f55">equivalent, shelf, and small</text>
<text x="360.0" y="456.0" font-size="10" font-weight="400" fill="#685f55">old-world decoration</text>
<text x="26.0" y="306.0" font-size="10" font-weight="400" fill="#685f55">Generated from BP-SCR-HOM-ASH-002-001 - guide only, not final art</text>
</svg>
