<svg xmlns="http://www.w3.org/2000/svg" width="813" height="494" viewBox="0 0 813 494">
<rect width="100%" height="100%" fill="#fbf8ef"/>
<text x="26.0" y="26.0" font-size="18" font-weight="700" fill="#241f1a">SCR-HOM-SND-003 - Sealed Node Guardian Chamber</text>
<text x="26.0" y="44.0" font-size="11" font-weight="400" fill="#685f55">boss_chamber_and_relay_gate</text>
<rect x="26" y="56" width="486" height="414" fill="#f7f3e7" stroke="#332b25" stroke-width="2"/>
<line x1="26.0" y1="56" x2="26.0" y2="470" stroke="#d8d0bd" stroke-width="0.5"/>
<line x1="44.0" y1="56" x2="44.0" y2="470" stroke="#d8d0bd" stroke-width="0.5"/>
<line x1="62.0" y1="56" x2="62.0" y2="470" stroke="#d8d0bd" stroke-width="0.5"/>
<line x1="80.0" y1="56" x2="80.0" y2="470" stroke="#d8d0bd" stroke-width="0.5"/>
<line x1="98.0" y1="56" x2="98.0" y2="470" stroke="#d8d0bd" stroke-width="0.5"/>
<line x1="116.0" y1="56" x2="116.0" y2="470" stroke="#d8d0bd" stroke-width="0.5"/>
<line x1="134.0" y1="56" x2="134.0" y2="470" stroke="#d8d0bd" stroke-width="0.5"/>
<line x1="152.0" y1="56" x2="152.0" y2="470" stroke="#d8d0bd" stroke-width="0.5"/>
<line x1="170.0" y1="56" x2="170.0" y2="470" stroke="#d8d0bd" stroke-width="0.5"/>
<line x1="188.0" y1="56" x2="188.0" y2="470" stroke="#d8d0bd" stroke-width="0.5"/>
<line x1="206.0" y1="56" x2="206.0" y2="470" stroke="#d8d0bd" stroke-width="0.5"/>
<line x1="224.0" y1="56" x2="224.0" y2="470" stroke="#d8d0bd" stroke-width="0.5"/>
<line x1="242.0" y1="56" x2="242.0" y2="470" stroke="#d8d0bd" stroke-width="0.5"/>
<line x1="260.0" y1="56" x2="260.0" y2="470" stroke="#d8d0bd" stroke-width="0.5"/>
<line x1="278.0" y1="56" x2="278.0" y2="470" stroke="#d8d0bd" stroke-width="0.5"/>
<line x1="296.0" y1="56" x2="296.0" y2="470" stroke="#d8d0bd" stroke-width="0.5"/>
<line x1="314.0" y1="56" x2="314.0" y2="470" stroke="#d8d0bd" stroke-width="0.5"/>
<line x1="332.0" y1="56" x2="332.0" y2="470" stroke="#d8d0bd" stroke-width="0.5"/>
<line x1="350.0" y1="56" x2="350.0" y2="470" stroke="#d8d0bd" stroke-width="0.5"/>
<line x1="368.0" y1="56" x2="368.0" y2="470" stroke="#d8d0bd" stroke-width="0.5"/>
<line x1="386.0" y1="56" x2="386.0" y2="470" stroke="#d8d0bd" stroke-width="0.5"/>
<line x1="404.0" y1="56" x2="404.0" y2="470" stroke="#d8d0bd" stroke-width="0.5"/>
<line x1="422.0" y1="56" x2="422.0" y2="470" stroke="#d8d0bd" stroke-width="0.5"/>
<line x1="440.0" y1="56" x2="440.0" y2="470" stroke="#d8d0bd" stroke-width="0.5"/>
<line x1="458.0" y1="56" x2="458.0" y2="470" stroke="#d8d0bd" stroke-width="0.5"/>
<line x1="476.0" y1="56" x2="476.0" y2="470" stroke="#d8d0bd" stroke-width="0.5"/>
<line x1="494.0" y1="56" x2="494.0" y2="470" stroke="#d8d0bd" stroke-width="0.5"/>
<line x1="512.0" y1="56" x2="512.0" y2="470" stroke="#d8d0bd" stroke-width="0.5"/>
<line x1="26" y1="56.0" x2="512" y2="56.0" stroke="#d8d0bd" stroke-width="0.5"/>
<line x1="26" y1="74.0" x2="512" y2="74.0" stroke="#d8d0bd" stroke-width="0.5"/>
<line x1="26" y1="92.0" x2="512" y2="92.0" stroke="#d8d0bd" stroke-width="0.5"/>
<line x1="26" y1="110.0" x2="512" y2="110.0" stroke="#d8d0bd" stroke-width="0.5"/>
<line x1="26" y1="128.0" x2="512" y2="128.0" stroke="#d8d0bd" stroke-width="0.5"/>
<line x1="26" y1="146.0" x2="512" y2="146.0" stroke="#d8d0bd" stroke-width="0.5"/>
<line x1="26" y1="164.0" x2="512" y2="164.0" stroke="#d8d0bd" stroke-width="0.5"/>
<line x1="26" y1="182.0" x2="512" y2="182.0" stroke="#d8d0bd" stroke-width="0.5"/>
<line x1="26" y1="200.0" x2="512" y2="200.0" stroke="#d8d0bd" stroke-width="0.5"/>
<line x1="26" y1="218.0" x2="512" y2="218.0" stroke="#d8d0bd" stroke-width="0.5"/>
<line x1="26" y1="236.0" x2="512" y2="236.0" stroke="#d8d0bd" stroke-width="0.5"/>
<line x1="26" y1="254.0" x2="512" y2="254.0" stroke="#d8d0bd" stroke-width="0.5"/>
<line x1="26" y1="272.0" x2="512" y2="272.0" stroke="#d8d0bd" stroke-width="0.5"/>
<line x1="26" y1="290.0" x2="512" y2="290.0" stroke="#d8d0bd" stroke-width="0.5"/>
<line x1="26" y1="308.0" x2="512" y2="308.0" stroke="#d8d0bd" stroke-width="0.5"/>
<line x1="26" y1="326.0" x2="512" y2="326.0" stroke="#d8d0bd" stroke-width="0.5"/>
<line x1="26" y1="344.0" x2="512" y2="344.0" stroke="#d8d0bd" stroke-width="0.5"/>
<line x1="26" y1="362.0" x2="512" y2="362.0" stroke="#d8d0bd" stroke-width="0.5"/>
<line x1="26" y1="380.0" x2="512" y2="380.0" stroke="#d8d0bd" stroke-width="0.5"/>
<line x1="26" y1="398.0" x2="512" y2="398.0" stroke="#d8d0bd" stroke-width="0.5"/>
<line x1="26" y1="416.0" x2="512" y2="416.0" stroke="#d8d0bd" stroke-width="0.5"/>
<line x1="26" y1="434.0" x2="512" y2="434.0" stroke="#d8d0bd" stroke-width="0.5"/>
<line x1="26" y1="452.0" x2="512" y2="452.0" stroke="#d8d0bd" stroke-width="0.5"/>
<line x1="26" y1="470.0" x2="512" y2="470.0" stroke="#d8d0bd" stroke-width="0.5"/>
<polyline points="260.0,452.0 260.0,362.0 260.0,254.0 260.0,146.0 260.0,56.0" fill="none" stroke="#d9e9c8" stroke-width="4" stroke-linecap="round" stroke-linejoin="round" opacity="0.58"/>
<rect x="134.0" y="182.0" width="270.0" height="180.0" fill="#d9e9c8" fill-opacity="0.58" stroke="none" stroke-width="1"/>
<rect x="206.0" y="92.0" width="126.0" height="90.0" fill="#d9e9c8" fill-opacity="0.58" stroke="none" stroke-width="1"/>
<rect x="116.0" y="74.0" width="306.0" height="378.0" fill="#76a9e0" fill-opacity="0.14" stroke="#76a9e0" stroke-width="1" stroke-dasharray="4 3"/>
<rect x="26.0" y="56.0" width="486.0" height="414.0" fill="#bde3c4" fill-opacity="0.24" stroke="#bde3c4" stroke-width="1" stroke-dasharray="5 4"/>
<rect x="80.0" y="146.0" width="54.0" height="216.0" fill="#5b4c42" fill-opacity="0.82" stroke="#2b241f" stroke-width="1"/>
<rect x="404.0" y="146.0" width="54.0" height="216.0" fill="#5b4c42" fill-opacity="0.82" stroke="#2b241f" stroke-width="1"/>
<rect x="134.0" y="74.0" width="54.0" height="18.0" fill="#5b4c42" fill-opacity="0.82" stroke="#2b241f" stroke-width="1"/>
<polyline points="260.0,452.0 260.0,362.0 260.0,254.0 260.0,146.0 260.0,56.0" fill="none" stroke="#8a6f47" stroke-width="4" stroke-linecap="round" stroke-linejoin="round" opacity="0.92"/>
<polygon points="260.0,444.0 268.0,459.0 252.0,459.0" fill="#225ea8" stroke="#1b1714" stroke-width="1"/>
<rect x="268.0" y="443.0" width="68.2" height="14" rx="2" fill="#fffaf0" fill-opacity="0.86"/>
<text x="271.0" y="454.0" font-size="10" font-weight="400" fill="#241f1a">TRN-HOM-022</text>
<polygon points="260.0,48.0 268.0,63.0 252.0,63.0" fill="#225ea8" stroke="#1b1714" stroke-width="1"/>
<rect x="268.0" y="47.0" width="68.2" height="14" rx="2" fill="#fffaf0" fill-opacity="0.86"/>
<text x="271.0" y="58.0" font-size="10" font-weight="400" fill="#241f1a">TRN-HOM-023</text>
<polygon points="260.0,246.0 268.0,254.0 260.0,262.0 252.0,254.0" fill="#7b2cbf" stroke="#1b1714" stroke-width="1"/>
<rect x="268.0" y="245.0" width="68.2" height="14" rx="2" fill="#fffaf0" fill-opacity="0.86"/>
<text x="271.0" y="256.0" font-size="10" font-weight="400" fill="#241f1a">EVT-HOM-021</text>
<text x="540.0" y="60.0" font-size="16" font-weight="700" fill="#241f1a">Legend</text>
<rect x="540" y="73" width="14" height="14" fill="#d9e9c8" stroke="#1b1714" stroke-width="1"/>
<text x="564.0" y="84.0" font-size="11" font-weight="400" fill="#241f1a">Walkable</text>
<rect x="540" y="95" width="14" height="14" fill="#726658" stroke="#1b1714" stroke-width="1"/>
<text x="564.0" y="106.0" font-size="11" font-weight="400" fill="#241f1a">Blocked</text>
<rect x="540" y="117" width="14" height="14" fill="#eddc91" stroke="#1b1714" stroke-width="1"/>
<text x="564.0" y="128.0" font-size="11" font-weight="400" fill="#241f1a">Conditional</text>
<rect x="540" y="139" width="14" height="14" fill="#76a9e0" fill-opacity="0.25" stroke="#76a9e0" stroke-width="2" stroke-dasharray="3 2"/>
<text x="564.0" y="150.0" font-size="11" font-weight="400" fill="#241f1a">Traversable zone</text>
<rect x="540" y="161" width="14" height="14" fill="#e8a6a1" fill-opacity="0.25" stroke="#e8a6a1" stroke-width="2" stroke-dasharray="3 2"/>
<text x="564.0" y="172.0" font-size="11" font-weight="400" fill="#241f1a">Encounter / special region</text>
<polygon points="547,181 555,195 539,195" fill="#225ea8" stroke="#1b1714" stroke-width="1"/>
<text x="564.0" y="194.0" font-size="11" font-weight="400" fill="#241f1a">Transfer</text>
<circle cx="547" cy="211" r="7" fill="#2a9d8f" stroke="#1b1714" stroke-width="1"/>
<text x="564.0" y="216.0" font-size="11" font-weight="400" fill="#241f1a">NPC</text>
<rect x="541" y="226" width="13" height="13" fill="#c47f00" stroke="#1b1714" stroke-width="1"/>
<text x="564.0" y="238.0" font-size="11" font-weight="400" fill="#241f1a">Treasure</text>
<polygon points="547,246 555,254 547,262 539,254" fill="#7b2cbf" stroke="#1b1714" stroke-width="1"/>
<text x="564.0" y="260.0" font-size="11" font-weight="400" fill="#241f1a">Event anchor</text>
<text x="540.0" y="296.0" font-size="14" font-weight="700" fill="#241f1a">Intent</text>
<text x="540.0" y="314.0" font-size="10" font-weight="400" fill="#685f55">Host the Journey I boss encounter</text>
<text x="540.0" y="332.0" font-size="10" font-weight="400" fill="#685f55">against the Node Seven Guardian and</text>
<text x="540.0" y="350.0" font-size="10" font-weight="400" fill="#685f55">gate access to the relay core.</text>
<text x="540.0" y="378.0" font-size="14" font-weight="700" fill="#241f1a">Visual Tone</text>
<text x="540.0" y="396.0" font-size="10" font-weight="400" fill="#685f55">compact old-stone and machine chamber</text>
<text x="540.0" y="410.0" font-size="10" font-weight="400" fill="#685f55">with strong guardian focus</text>
<text x="26.0" y="486.0" font-size="10" font-weight="400" fill="#685f55">Generated from BP-SCR-HOM-SND-003-001 - guide only, not final art</text>
</svg>
