<svg xmlns="http://www.w3.org/2000/svg" width="759" height="440" viewBox="0 0 759 440">
<rect width="100%" height="100%" fill="#fbf8ef"/>
<text x="26.0" y="26.0" font-size="18" font-weight="700" fill="#241f1a">SCR-HOM-FOG-002 - Deeper Marsh Pocket</text>
<text x="26.0" y="44.0" font-size="11" font-weight="400" fill="#685f55">optional_side_pocket</text>
<rect x="26" y="56" width="432" height="360" fill="#f7f3e7" stroke="#332b25" stroke-width="2"/>
<line x1="26.0" y1="56" x2="26.0" y2="416" stroke="#d8d0bd" stroke-width="0.5"/>
<line x1="44.0" y1="56" x2="44.0" y2="416" stroke="#d8d0bd" stroke-width="0.5"/>
<line x1="62.0" y1="56" x2="62.0" y2="416" stroke="#d8d0bd" stroke-width="0.5"/>
<line x1="80.0" y1="56" x2="80.0" y2="416" stroke="#d8d0bd" stroke-width="0.5"/>
<line x1="98.0" y1="56" x2="98.0" y2="416" stroke="#d8d0bd" stroke-width="0.5"/>
<line x1="116.0" y1="56" x2="116.0" y2="416" stroke="#d8d0bd" stroke-width="0.5"/>
<line x1="134.0" y1="56" x2="134.0" y2="416" stroke="#d8d0bd" stroke-width="0.5"/>
<line x1="152.0" y1="56" x2="152.0" y2="416" stroke="#d8d0bd" stroke-width="0.5"/>
<line x1="170.0" y1="56" x2="170.0" y2="416" stroke="#d8d0bd" stroke-width="0.5"/>
<line x1="188.0" y1="56" x2="188.0" y2="416" stroke="#d8d0bd" stroke-width="0.5"/>
<line x1="206.0" y1="56" x2="206.0" y2="416" stroke="#d8d0bd" stroke-width="0.5"/>
<line x1="224.0" y1="56" x2="224.0" y2="416" stroke="#d8d0bd" stroke-width="0.5"/>
<line x1="242.0" y1="56" x2="242.0" y2="416" stroke="#d8d0bd" stroke-width="0.5"/>
<line x1="260.0" y1="56" x2="260.0" y2="416" stroke="#d8d0bd" stroke-width="0.5"/>
<line x1="278.0" y1="56" x2="278.0" y2="416" stroke="#d8d0bd" stroke-width="0.5"/>
<line x1="296.0" y1="56" x2="296.0" y2="416" stroke="#d8d0bd" stroke-width="0.5"/>
<line x1="314.0" y1="56" x2="314.0" y2="416" stroke="#d8d0bd" stroke-width="0.5"/>
<line x1="332.0" y1="56" x2="332.0" y2="416" stroke="#d8d0bd" stroke-width="0.5"/>
<line x1="350.0" y1="56" x2="350.0" y2="416" stroke="#d8d0bd" stroke-width="0.5"/>
<line x1="368.0" y1="56" x2="368.0" y2="416" stroke="#d8d0bd" stroke-width="0.5"/>
<line x1="386.0" y1="56" x2="386.0" y2="416" stroke="#d8d0bd" stroke-width="0.5"/>
<line x1="404.0" y1="56" x2="404.0" y2="416" stroke="#d8d0bd" stroke-width="0.5"/>
<line x1="422.0" y1="56" x2="422.0" y2="416" stroke="#d8d0bd" stroke-width="0.5"/>
<line x1="440.0" y1="56" x2="440.0" y2="416" stroke="#d8d0bd" stroke-width="0.5"/>
<line x1="458.0" y1="56" x2="458.0" y2="416" stroke="#d8d0bd" stroke-width="0.5"/>
<line x1="26" y1="56.0" x2="458" y2="56.0" stroke="#d8d0bd" stroke-width="0.5"/>
<line x1="26" y1="74.0" x2="458" y2="74.0" stroke="#d8d0bd" stroke-width="0.5"/>
<line x1="26" y1="92.0" x2="458" y2="92.0" stroke="#d8d0bd" stroke-width="0.5"/>
<line x1="26" y1="110.0" x2="458" y2="110.0" stroke="#d8d0bd" stroke-width="0.5"/>
<line x1="26" y1="128.0" x2="458" y2="128.0" stroke="#d8d0bd" stroke-width="0.5"/>
<line x1="26" y1="146.0" x2="458" y2="146.0" stroke="#d8d0bd" stroke-width="0.5"/>
<line x1="26" y1="164.0" x2="458" y2="164.0" stroke="#d8d0bd" stroke-width="0.5"/>
<line x1="26" y1="182.0" x2="458" y2="182.0" stroke="#d8d0bd" stroke-width="0.5"/>
<line x1="26" y1="200.0" x2="458" y2="200.0" stroke="#d8d0bd" stroke-width="0.5"/>
<line x1="26" y1="218.0" x2="458" y2="218.0" stroke="#d8d0bd" stroke-width="0.5"/>
<line x1="26" y1="236.0" x2="458" y2="236.0" stroke="#d8d0bd" stroke-width="0.5"/>
<line x1="26" y1="254.0" x2="458" y2="254.0" stroke="#d8d0bd" stroke-width="0.5"/>
<line x1="26" y1="272.0" x2="458" y2="272.0" stroke="#d8d0bd" stroke-width="0.5"/>
<line x1="26" y1="290.0" x2="458" y2="290.0" stroke="#d8d0bd" stroke-width="0.5"/>
<line x1="26" y1="308.0" x2="458" y2="308.0" stroke="#d8d0bd" stroke-width="0.5"/>
<line x1="26" y1="326.0" x2="458" y2="326.0" stroke="#d8d0bd" stroke-width="0.5"/>
<line x1="26" y1="344.0" x2="458" y2="344.0" stroke="#d8d0bd" stroke-width="0.5"/>
<line x1="26" y1="362.0" x2="458" y2="362.0" stroke="#d8d0bd" stroke-width="0.5"/>
<line x1="26" y1="380.0" x2="458" y2="380.0" stroke="#d8d0bd" stroke-width="0.5"/>
<line x1="26" y1="398.0" x2="458" y2="398.0" stroke="#d8d0bd" stroke-width="0.5"/>
<line x1="26" y1="416.0" x2="458" y2="416.0" stroke="#d8d0bd" stroke-width="0.5"/>
<polyline points="26.0,326.0 116.0,326.0 188.0,290.0 260.0,236.0 332.0,200.0 440.0,182.0" fill="none" stroke="#d9e9c8" stroke-width="4" stroke-linecap="round" stroke-linejoin="round" opacity="0.58"/>
<rect x="98.0" y="128.0" width="288.0" height="216.0" fill="#d9e9c8" fill-opacity="0.58" stroke="none" stroke-width="1"/>
<rect x="260.0" y="146.0" width="108.0" height="90.0" fill="#d9e9c8" fill-opacity="0.58" stroke="none" stroke-width="1"/>
<rect x="206.0" y="218.0" width="90.0" height="54.0" fill="#d9e9c8" fill-opacity="0.58" stroke="none" stroke-width="1"/>
<rect x="134.0" y="254.0" width="90.0" height="72.0" fill="#d9e9c8" fill-opacity="0.58" stroke="none" stroke-width="1"/>
<rect x="170.0" y="308.0" width="126.0" height="54.0" fill="#d9d2c3" fill-opacity="0.58" stroke="none" stroke-width="1"/>
<rect x="62.0" y="110.0" width="360.0" height="270.0" fill="#76a9e0" fill-opacity="0.14" stroke="#76a9e0" stroke-width="1" stroke-dasharray="4 3"/>
<rect x="116.0" y="146.0" width="270.0" height="198.0" fill="#d0b2e8" fill-opacity="0.24" stroke="#d0b2e8" stroke-width="1" stroke-dasharray="5 4"/>
<rect x="170.0" y="308.0" width="126.0" height="54.0" fill="#d0b2e8" fill-opacity="0.24" stroke="#d0b2e8" stroke-width="1" stroke-dasharray="5 4"/>
<rect x="26.0" y="272.0" width="108.0" height="108.0" fill="#bde3c4" fill-opacity="0.24" stroke="#bde3c4" stroke-width="1" stroke-dasharray="5 4"/>
<rect x="62.0" y="74.0" width="360.0" height="54.0" fill="#5b4c42" fill-opacity="0.82" stroke="#2b241f" stroke-width="1"/>
<rect x="80.0" y="362.0" width="324.0" height="36.0" fill="#5b4c42" fill-opacity="0.82" stroke="#2b241f" stroke-width="1"/>
<rect x="44.0" y="146.0" width="72.0" height="144.0" fill="#5b4c42" fill-opacity="0.82" stroke="#2b241f" stroke-width="1"/>
<rect x="386.0" y="218.0" width="54.0" height="126.0" fill="#5b4c42" fill-opacity="0.82" stroke="#2b241f" stroke-width="1"/>
<polyline points="26.0,326.0 116.0,326.0 188.0,290.0 260.0,236.0 332.0,200.0 440.0,182.0" fill="none" stroke="#8a6f47" stroke-width="4" stroke-linecap="round" stroke-linejoin="round" opacity="0.92"/>
<polygon points="26.0,318.0 34.0,333.0 18.0,333.0" fill="#225ea8" stroke="#1b1714" stroke-width="1"/>
<rect x="34.0" y="317.0" width="68.2" height="14" rx="2" fill="#fffaf0" fill-opacity="0.86"/>
<text x="37.0" y="328.0" font-size="10" font-weight="400" fill="#241f1a">TRN-HOM-030</text>
<rect x="164.0" y="284.0" width="12" height="12" rx="1" fill="#c47f00" stroke="#1b1714" stroke-width="1"/>
<rect x="178.0" y="281.0" width="93.0" height="14" rx="2" fill="#fffaf0" fill-opacity="0.86"/>
<text x="181.0" y="292.0" font-size="10" font-weight="400" fill="#241f1a">OBJ-HOM-FOG-009</text>
<polygon points="62.0,318.0 70.0,326.0 62.0,334.0 54.0,326.0" fill="#7b2cbf" stroke="#1b1714" stroke-width="1"/>
<rect x="70.0" y="317.0" width="68.2" height="14" rx="2" fill="#fffaf0" fill-opacity="0.86"/>
<text x="73.0" y="328.0" font-size="10" font-weight="400" fill="#241f1a">EVT-HOM-030</text>
<polygon points="278.0,210.0 286.0,218.0 278.0,226.0 270.0,218.0" fill="#7b2cbf" stroke="#1b1714" stroke-width="1"/>
<rect x="286.0" y="209.0" width="68.2" height="14" rx="2" fill="#fffaf0" fill-opacity="0.86"/>
<text x="289.0" y="220.0" font-size="10" font-weight="400" fill="#241f1a">EVT-HOM-031</text>
<text x="486.0" y="60.0" font-size="16" font-weight="700" fill="#241f1a">Legend</text>
<rect x="486" y="73" width="14" height="14" fill="#d9e9c8" stroke="#1b1714" stroke-width="1"/>
<text x="510.0" y="84.0" font-size="11" font-weight="400" fill="#241f1a">Walkable</text>
<rect x="486" y="95" width="14" height="14" fill="#726658" stroke="#1b1714" stroke-width="1"/>
<text x="510.0" y="106.0" font-size="11" font-weight="400" fill="#241f1a">Blocked</text>
<rect x="486" y="117" width="14" height="14" fill="#eddc91" stroke="#1b1714" stroke-width="1"/>
<text x="510.0" y="128.0" font-size="11" font-weight="400" fill="#241f1a">Conditional</text>
<rect x="486" y="139" width="14" height="14" fill="#76a9e0" fill-opacity="0.25" stroke="#76a9e0" stroke-width="2" stroke-dasharray="3 2"/>
<text x="510.0" y="150.0" font-size="11" font-weight="400" fill="#241f1a">Traversable zone</text>
<rect x="486" y="161" width="14" height="14" fill="#e8a6a1" fill-opacity="0.25" stroke="#e8a6a1" stroke-width="2" stroke-dasharray="3 2"/>
<text x="510.0" y="172.0" font-size="11" font-weight="400" fill="#241f1a">Encounter / special region</text>
<polygon points="493,181 501,195 485,195" fill="#225ea8" stroke="#1b1714" stroke-width="1"/>
<text x="510.0" y="194.0" font-size="11" font-weight="400" fill="#241f1a">Transfer</text>
<circle cx="493" cy="211" r="7" fill="#2a9d8f" stroke="#1b1714" stroke-width="1"/>
<text x="510.0" y="216.0" font-size="11" font-weight="400" fill="#241f1a">NPC</text>
<rect x="487" y="226" width="13" height="13" fill="#c47f00" stroke="#1b1714" stroke-width="1"/>
<text x="510.0" y="238.0" font-size="11" font-weight="400" fill="#241f1a">Treasure</text>
<polygon points="493,246 501,254 493,262 485,254" fill="#7b2cbf" stroke="#1b1714" stroke-width="1"/>
<text x="510.0" y="260.0" font-size="11" font-weight="400" fill="#241f1a">Event anchor</text>
<text x="486.0" y="296.0" font-size="14" font-weight="700" fill="#241f1a">Intent</text>
<text x="486.0" y="314.0" font-size="10" font-weight="400" fill="#685f55">Provide a compact optional Fogfen</text>
<text x="486.0" y="332.0" font-size="10" font-weight="400" fill="#685f55">detour with a stronger environmental</text>
<text x="486.0" y="350.0" font-size="10" font-weight="400" fill="#685f55">clue, safe return, and optional</text>
<text x="486.0" y="368.0" font-size="10" font-weight="400" fill="#685f55">reward cache.</text>
<text x="486.0" y="396.0" font-size="14" font-weight="700" fill="#241f1a">Visual Tone</text>
<text x="486.0" y="414.0" font-size="10" font-weight="400" fill="#685f55">dense reeds, darker mud and water</text>
<text x="486.0" y="428.0" font-size="10" font-weight="400" fill="#685f55">edges, submerged cable cluster, and a</text>
<text x="486.0" y="442.0" font-size="10" font-weight="400" fill="#685f55">strange signal pool</text>
<text x="26.0" y="432.0" font-size="10" font-weight="400" fill="#685f55">Generated from BP-SCR-HOM-FOG-002-001 - guide only, not final art</text>
</svg>
