<svg xmlns="http://www.w3.org/2000/svg" width="741" height="386" viewBox="0 0 741 386">
<rect width="100%" height="100%" fill="#fbf8ef"/>
<text x="26.0" y="26.0" font-size="18" font-weight="700" fill="#241f1a">SCR-HOM-RST-002 - Mainland Departure</text>
<text x="26.0" y="44.0" font-size="11" font-weight="400" fill="#685f55">journey_transition_placeholder</text>
<rect x="26" y="56" width="414" height="306" fill="#f7f3e7" stroke="#332b25" stroke-width="2"/>
<line x1="26.0" y1="56" x2="26.0" y2="362" stroke="#d8d0bd" stroke-width="0.5"/>
<line x1="44.0" y1="56" x2="44.0" y2="362" stroke="#d8d0bd" stroke-width="0.5"/>
<line x1="62.0" y1="56" x2="62.0" y2="362" stroke="#d8d0bd" stroke-width="0.5"/>
<line x1="80.0" y1="56" x2="80.0" y2="362" stroke="#d8d0bd" stroke-width="0.5"/>
<line x1="98.0" y1="56" x2="98.0" y2="362" stroke="#d8d0bd" stroke-width="0.5"/>
<line x1="116.0" y1="56" x2="116.0" y2="362" stroke="#d8d0bd" stroke-width="0.5"/>
<line x1="134.0" y1="56" x2="134.0" y2="362" stroke="#d8d0bd" stroke-width="0.5"/>
<line x1="152.0" y1="56" x2="152.0" y2="362" stroke="#d8d0bd" stroke-width="0.5"/>
<line x1="170.0" y1="56" x2="170.0" y2="362" stroke="#d8d0bd" stroke-width="0.5"/>
<line x1="188.0" y1="56" x2="188.0" y2="362" stroke="#d8d0bd" stroke-width="0.5"/>
<line x1="206.0" y1="56" x2="206.0" y2="362" stroke="#d8d0bd" stroke-width="0.5"/>
<line x1="224.0" y1="56" x2="224.0" y2="362" stroke="#d8d0bd" stroke-width="0.5"/>
<line x1="242.0" y1="56" x2="242.0" y2="362" stroke="#d8d0bd" stroke-width="0.5"/>
<line x1="260.0" y1="56" x2="260.0" y2="362" stroke="#d8d0bd" stroke-width="0.5"/>
<line x1="278.0" y1="56" x2="278.0" y2="362" stroke="#d8d0bd" stroke-width="0.5"/>
<line x1="296.0" y1="56" x2="296.0" y2="362" stroke="#d8d0bd" stroke-width="0.5"/>
<line x1="314.0" y1="56" x2="314.0" y2="362" stroke="#d8d0bd" stroke-width="0.5"/>
<line x1="332.0" y1="56" x2="332.0" y2="362" stroke="#d8d0bd" stroke-width="0.5"/>
<line x1="350.0" y1="56" x2="350.0" y2="362" stroke="#d8d0bd" stroke-width="0.5"/>
<line x1="368.0" y1="56" x2="368.0" y2="362" stroke="#d8d0bd" stroke-width="0.5"/>
<line x1="386.0" y1="56" x2="386.0" y2="362" stroke="#d8d0bd" stroke-width="0.5"/>
<line x1="404.0" y1="56" x2="404.0" y2="362" stroke="#d8d0bd" stroke-width="0.5"/>
<line x1="422.0" y1="56" x2="422.0" y2="362" stroke="#d8d0bd" stroke-width="0.5"/>
<line x1="440.0" y1="56" x2="440.0" y2="362" stroke="#d8d0bd" stroke-width="0.5"/>
<line x1="26" y1="56.0" x2="440" y2="56.0" stroke="#d8d0bd" stroke-width="0.5"/>
<line x1="26" y1="74.0" x2="440" y2="74.0" stroke="#d8d0bd" stroke-width="0.5"/>
<line x1="26" y1="92.0" x2="440" y2="92.0" stroke="#d8d0bd" stroke-width="0.5"/>
<line x1="26" y1="110.0" x2="440" y2="110.0" stroke="#d8d0bd" stroke-width="0.5"/>
<line x1="26" y1="128.0" x2="440" y2="128.0" stroke="#d8d0bd" stroke-width="0.5"/>
<line x1="26" y1="146.0" x2="440" y2="146.0" stroke="#d8d0bd" stroke-width="0.5"/>
<line x1="26" y1="164.0" x2="440" y2="164.0" stroke="#d8d0bd" stroke-width="0.5"/>
<line x1="26" y1="182.0" x2="440" y2="182.0" stroke="#d8d0bd" stroke-width="0.5"/>
<line x1="26" y1="200.0" x2="440" y2="200.0" stroke="#d8d0bd" stroke-width="0.5"/>
<line x1="26" y1="218.0" x2="440" y2="218.0" stroke="#d8d0bd" stroke-width="0.5"/>
<line x1="26" y1="236.0" x2="440" y2="236.0" stroke="#d8d0bd" stroke-width="0.5"/>
<line x1="26" y1="254.0" x2="440" y2="254.0" stroke="#d8d0bd" stroke-width="0.5"/>
<line x1="26" y1="272.0" x2="440" y2="272.0" stroke="#d8d0bd" stroke-width="0.5"/>
<line x1="26" y1="290.0" x2="440" y2="290.0" stroke="#d8d0bd" stroke-width="0.5"/>
<line x1="26" y1="308.0" x2="440" y2="308.0" stroke="#d8d0bd" stroke-width="0.5"/>
<line x1="26" y1="326.0" x2="440" y2="326.0" stroke="#d8d0bd" stroke-width="0.5"/>
<line x1="26" y1="344.0" x2="440" y2="344.0" stroke="#d8d0bd" stroke-width="0.5"/>
<line x1="26" y1="362.0" x2="440" y2="362.0" stroke="#d8d0bd" stroke-width="0.5"/>
<rect x="134.0" y="218.0" width="198.0" height="72.0" fill="#d9e9c8" fill-opacity="0.58" stroke="none" stroke-width="1"/>
<polyline points="224.0,326.0 224.0,254.0 224.0,164.0 224.0,74.0" fill="none" stroke="#d9e9c8" stroke-width="4" stroke-linecap="round" stroke-linejoin="round" opacity="0.58"/>
<rect x="134.0" y="74.0" width="198.0" height="270.0" fill="#76a9e0" fill-opacity="0.14" stroke="#76a9e0" stroke-width="1" stroke-dasharray="4 3"/>
<rect x="26.0" y="56.0" width="414.0" height="306.0" fill="#bde3c4" fill-opacity="0.24" stroke="#bde3c4" stroke-width="1" stroke-dasharray="5 4"/>
<rect x="80.0" y="110.0" width="36.0" height="198.0" fill="#5b4c42" fill-opacity="0.82" stroke="#2b241f" stroke-width="1"/>
<rect x="350.0" y="110.0" width="36.0" height="198.0" fill="#5b4c42" fill-opacity="0.82" stroke="#2b241f" stroke-width="1"/>
<polyline points="224.0,326.0 224.0,254.0 224.0,164.0 224.0,74.0" fill="none" stroke="#8a6f47" stroke-width="4" stroke-linecap="round" stroke-linejoin="round" opacity="0.92"/>
<polygon points="224.0,66.0 232.0,81.0 216.0,81.0" fill="#225ea8" stroke="#1b1714" stroke-width="1"/>
<rect x="232.0" y="65.0" width="68.2" height="14" rx="2" fill="#fffaf0" fill-opacity="0.86"/>
<text x="235.0" y="76.0" font-size="10" font-weight="400" fill="#241f1a">TRN-HOM-026</text>
<polygon points="224.0,228.0 232.0,236.0 224.0,244.0 216.0,236.0" fill="#7b2cbf" stroke="#1b1714" stroke-width="1"/>
<rect x="232.0" y="227.0" width="68.2" height="14" rx="2" fill="#fffaf0" fill-opacity="0.86"/>
<text x="235.0" y="238.0" font-size="10" font-weight="400" fill="#241f1a">EVT-HOM-026</text>
<text x="468.0" y="60.0" font-size="16" font-weight="700" fill="#241f1a">Legend</text>
<rect x="468" y="73" width="14" height="14" fill="#d9e9c8" stroke="#1b1714" stroke-width="1"/>
<text x="492.0" y="84.0" font-size="11" font-weight="400" fill="#241f1a">Walkable</text>
<rect x="468" y="95" width="14" height="14" fill="#726658" stroke="#1b1714" stroke-width="1"/>
<text x="492.0" y="106.0" font-size="11" font-weight="400" fill="#241f1a">Blocked</text>
<rect x="468" y="117" width="14" height="14" fill="#eddc91" stroke="#1b1714" stroke-width="1"/>
<text x="492.0" y="128.0" font-size="11" font-weight="400" fill="#241f1a">Conditional</text>
<rect x="468" y="139" width="14" height="14" fill="#76a9e0" fill-opacity="0.25" stroke="#76a9e0" stroke-width="2" stroke-dasharray="3 2"/>
<text x="492.0" y="150.0" font-size="11" font-weight="400" fill="#241f1a">Traversable zone</text>
<rect x="468" y="161" width="14" height="14" fill="#e8a6a1" fill-opacity="0.25" stroke="#e8a6a1" stroke-width="2" stroke-dasharray="3 2"/>
<text x="492.0" y="172.0" font-size="11" font-weight="400" fill="#241f1a">Encounter / special region</text>
<polygon points="475,181 483,195 467,195" fill="#225ea8" stroke="#1b1714" stroke-width="1"/>
<text x="492.0" y="194.0" font-size="11" font-weight="400" fill="#241f1a">Transfer</text>
<circle cx="475" cy="211" r="7" fill="#2a9d8f" stroke="#1b1714" stroke-width="1"/>
<text x="492.0" y="216.0" font-size="11" font-weight="400" fill="#241f1a">NPC</text>
<rect x="469" y="226" width="13" height="13" fill="#c47f00" stroke="#1b1714" stroke-width="1"/>
<text x="492.0" y="238.0" font-size="11" font-weight="400" fill="#241f1a">Treasure</text>
<polygon points="475,246 483,254 475,262 467,254" fill="#7b2cbf" stroke="#1b1714" stroke-width="1"/>
<text x="492.0" y="260.0" font-size="11" font-weight="400" fill="#241f1a">Event anchor</text>
<text x="468.0" y="296.0" font-size="14" font-weight="700" fill="#241f1a">Intent</text>
<text x="468.0" y="314.0" font-size="10" font-weight="400" fill="#685f55">Provide a short, trackable transition</text>
<text x="468.0" y="332.0" font-size="10" font-weight="400" fill="#685f55">from Journey I to Journey II after</text>
<text x="468.0" y="350.0" font-size="10" font-weight="400" fill="#685f55">mainland departure.</text>
<text x="468.0" y="378.0" font-size="14" font-weight="700" fill="#241f1a">Visual Tone</text>
<text x="468.0" y="396.0" font-size="10" font-weight="400" fill="#685f55">small limited dock and boat</text>
<text x="468.0" y="410.0" font-size="10" font-weight="400" fill="#685f55">transition strip</text>
<text x="26.0" y="378.0" font-size="10" font-weight="400" fill="#685f55">Generated from BP-SCR-HOM-RST-002-001 - guide only, not final art</text>
</svg>
