<svg xmlns="http://www.w3.org/2000/svg" width="1011" height="656" viewBox="0 0 1011 656">
<rect width="100%" height="100%" fill="#fbf8ef"/>
<text x="26.0" y="26.0" font-size="18" font-weight="700" fill="#241f1a">SCR-HOM-SND-002 - Sealed Node Core Path</text>
<text x="26.0" y="44.0" font-size="11" font-weight="400" fill="#685f55">sealed_node_connector_and_simple_door</text>
<rect x="26" y="56" width="684" height="576" fill="#f7f3e7" stroke="#332b25" stroke-width="2"/>
<line x1="26.0" y1="56" x2="26.0" y2="632" stroke="#d8d0bd" stroke-width="0.5"/>
<line x1="44.0" y1="56" x2="44.0" y2="632" stroke="#d8d0bd" stroke-width="0.5"/>
<line x1="62.0" y1="56" x2="62.0" y2="632" stroke="#d8d0bd" stroke-width="0.5"/>
<line x1="80.0" y1="56" x2="80.0" y2="632" stroke="#d8d0bd" stroke-width="0.5"/>
<line x1="98.0" y1="56" x2="98.0" y2="632" stroke="#d8d0bd" stroke-width="0.5"/>
<line x1="116.0" y1="56" x2="116.0" y2="632" stroke="#d8d0bd" stroke-width="0.5"/>
<line x1="134.0" y1="56" x2="134.0" y2="632" stroke="#d8d0bd" stroke-width="0.5"/>
<line x1="152.0" y1="56" x2="152.0" y2="632" stroke="#d8d0bd" stroke-width="0.5"/>
<line x1="170.0" y1="56" x2="170.0" y2="632" stroke="#d8d0bd" stroke-width="0.5"/>
<line x1="188.0" y1="56" x2="188.0" y2="632" stroke="#d8d0bd" stroke-width="0.5"/>
<line x1="206.0" y1="56" x2="206.0" y2="632" stroke="#d8d0bd" stroke-width="0.5"/>
<line x1="224.0" y1="56" x2="224.0" y2="632" stroke="#d8d0bd" stroke-width="0.5"/>
<line x1="242.0" y1="56" x2="242.0" y2="632" stroke="#d8d0bd" stroke-width="0.5"/>
<line x1="260.0" y1="56" x2="260.0" y2="632" stroke="#d8d0bd" stroke-width="0.5"/>
<line x1="278.0" y1="56" x2="278.0" y2="632" stroke="#d8d0bd" stroke-width="0.5"/>
<line x1="296.0" y1="56" x2="296.0" y2="632" stroke="#d8d0bd" stroke-width="0.5"/>
<line x1="314.0" y1="56" x2="314.0" y2="632" stroke="#d8d0bd" stroke-width="0.5"/>
<line x1="332.0" y1="56" x2="332.0" y2="632" stroke="#d8d0bd" stroke-width="0.5"/>
<line x1="350.0" y1="56" x2="350.0" y2="632" stroke="#d8d0bd" stroke-width="0.5"/>
<line x1="368.0" y1="56" x2="368.0" y2="632" stroke="#d8d0bd" stroke-width="0.5"/>
<line x1="386.0" y1="56" x2="386.0" y2="632" stroke="#d8d0bd" stroke-width="0.5"/>
<line x1="404.0" y1="56" x2="404.0" y2="632" stroke="#d8d0bd" stroke-width="0.5"/>
<line x1="422.0" y1="56" x2="422.0" y2="632" stroke="#d8d0bd" stroke-width="0.5"/>
<line x1="440.0" y1="56" x2="440.0" y2="632" stroke="#d8d0bd" stroke-width="0.5"/>
<line x1="458.0" y1="56" x2="458.0" y2="632" stroke="#d8d0bd" stroke-width="0.5"/>
<line x1="476.0" y1="56" x2="476.0" y2="632" stroke="#d8d0bd" stroke-width="0.5"/>
<line x1="494.0" y1="56" x2="494.0" y2="632" stroke="#d8d0bd" stroke-width="0.5"/>
<line x1="512.0" y1="56" x2="512.0" y2="632" stroke="#d8d0bd" stroke-width="0.5"/>
<line x1="530.0" y1="56" x2="530.0" y2="632" stroke="#d8d0bd" stroke-width="0.5"/>
<line x1="548.0" y1="56" x2="548.0" y2="632" stroke="#d8d0bd" stroke-width="0.5"/>
<line x1="566.0" y1="56" x2="566.0" y2="632" stroke="#d8d0bd" stroke-width="0.5"/>
<line x1="584.0" y1="56" x2="584.0" y2="632" stroke="#d8d0bd" stroke-width="0.5"/>
<line x1="602.0" y1="56" x2="602.0" y2="632" stroke="#d8d0bd" stroke-width="0.5"/>
<line x1="620.0" y1="56" x2="620.0" y2="632" stroke="#d8d0bd" stroke-width="0.5"/>
<line x1="638.0" y1="56" x2="638.0" y2="632" stroke="#d8d0bd" stroke-width="0.5"/>
<line x1="656.0" y1="56" x2="656.0" y2="632" stroke="#d8d0bd" stroke-width="0.5"/>
<line x1="674.0" y1="56" x2="674.0" y2="632" stroke="#d8d0bd" stroke-width="0.5"/>
<line x1="692.0" y1="56" x2="692.0" y2="632" stroke="#d8d0bd" stroke-width="0.5"/>
<line x1="710.0" y1="56" x2="710.0" y2="632" stroke="#d8d0bd" stroke-width="0.5"/>
<line x1="26" y1="56.0" x2="710" y2="56.0" stroke="#d8d0bd" stroke-width="0.5"/>
<line x1="26" y1="74.0" x2="710" y2="74.0" stroke="#d8d0bd" stroke-width="0.5"/>
<line x1="26" y1="92.0" x2="710" y2="92.0" stroke="#d8d0bd" stroke-width="0.5"/>
<line x1="26" y1="110.0" x2="710" y2="110.0" stroke="#d8d0bd" stroke-width="0.5"/>
<line x1="26" y1="128.0" x2="710" y2="128.0" stroke="#d8d0bd" stroke-width="0.5"/>
<line x1="26" y1="146.0" x2="710" y2="146.0" stroke="#d8d0bd" stroke-width="0.5"/>
<line x1="26" y1="164.0" x2="710" y2="164.0" stroke="#d8d0bd" stroke-width="0.5"/>
<line x1="26" y1="182.0" x2="710" y2="182.0" stroke="#d8d0bd" stroke-width="0.5"/>
<line x1="26" y1="200.0" x2="710" y2="200.0" stroke="#d8d0bd" stroke-width="0.5"/>
<line x1="26" y1="218.0" x2="710" y2="218.0" stroke="#d8d0bd" stroke-width="0.5"/>
<line x1="26" y1="236.0" x2="710" y2="236.0" stroke="#d8d0bd" stroke-width="0.5"/>
<line x1="26" y1="254.0" x2="710" y2="254.0" stroke="#d8d0bd" stroke-width="0.5"/>
<line x1="26" y1="272.0" x2="710" y2="272.0" stroke="#d8d0bd" stroke-width="0.5"/>
<line x1="26" y1="290.0" x2="710" y2="290.0" stroke="#d8d0bd" stroke-width="0.5"/>
<line x1="26" y1="308.0" x2="710" y2="308.0" stroke="#d8d0bd" stroke-width="0.5"/>
<line x1="26" y1="326.0" x2="710" y2="326.0" stroke="#d8d0bd" stroke-width="0.5"/>
<line x1="26" y1="344.0" x2="710" y2="344.0" stroke="#d8d0bd" stroke-width="0.5"/>
<line x1="26" y1="362.0" x2="710" y2="362.0" stroke="#d8d0bd" stroke-width="0.5"/>
<line x1="26" y1="380.0" x2="710" y2="380.0" stroke="#d8d0bd" stroke-width="0.5"/>
<line x1="26" y1="398.0" x2="710" y2="398.0" stroke="#d8d0bd" stroke-width="0.5"/>
<line x1="26" y1="416.0" x2="710" y2="416.0" stroke="#d8d0bd" stroke-width="0.5"/>
<line x1="26" y1="434.0" x2="710" y2="434.0" stroke="#d8d0bd" stroke-width="0.5"/>
<line x1="26" y1="452.0" x2="710" y2="452.0" stroke="#d8d0bd" stroke-width="0.5"/>
<line x1="26" y1="470.0" x2="710" y2="470.0" stroke="#d8d0bd" stroke-width="0.5"/>
<line x1="26" y1="488.0" x2="710" y2="488.0" stroke="#d8d0bd" stroke-width="0.5"/>
<line x1="26" y1="506.0" x2="710" y2="506.0" stroke="#d8d0bd" stroke-width="0.5"/>
<line x1="26" y1="524.0" x2="710" y2="524.0" stroke="#d8d0bd" stroke-width="0.5"/>
<line x1="26" y1="542.0" x2="710" y2="542.0" stroke="#d8d0bd" stroke-width="0.5"/>
<line x1="26" y1="560.0" x2="710" y2="560.0" stroke="#d8d0bd" stroke-width="0.5"/>
<line x1="26" y1="578.0" x2="710" y2="578.0" stroke="#d8d0bd" stroke-width="0.5"/>
<line x1="26" y1="596.0" x2="710" y2="596.0" stroke="#d8d0bd" stroke-width="0.5"/>
<line x1="26" y1="614.0" x2="710" y2="614.0" stroke="#d8d0bd" stroke-width="0.5"/>
<line x1="26" y1="632.0" x2="710" y2="632.0" stroke="#d8d0bd" stroke-width="0.5"/>
<polyline points="368.0,614.0 368.0,488.0 350.0,380.0 368.0,272.0 368.0,74.0" fill="none" stroke="#d9e9c8" stroke-width="4" stroke-linecap="round" stroke-linejoin="round" opacity="0.58"/>
<rect x="224.0" y="434.0" width="288.0" height="144.0" fill="#d9e9c8" fill-opacity="0.58" stroke="none" stroke-width="1"/>
<rect x="242.0" y="272.0" width="270.0" height="144.0" fill="#d9e9c8" fill-opacity="0.58" stroke="none" stroke-width="1"/>
<rect x="296.0" y="128.0" width="162.0" height="144.0" fill="#d9e9c8" fill-opacity="0.58" stroke="none" stroke-width="1"/>
<rect x="206.0" y="74.0" width="324.0" height="540.0" fill="#76a9e0" fill-opacity="0.14" stroke="#76a9e0" stroke-width="1" stroke-dasharray="4 3"/>
<rect x="224.0" y="128.0" width="306.0" height="414.0" fill="#d0b2e8" fill-opacity="0.24" stroke="#d0b2e8" stroke-width="1" stroke-dasharray="5 4"/>
<rect x="278.0" y="236.0" width="198.0" height="126.0" fill="#bde3c4" fill-opacity="0.24" stroke="#bde3c4" stroke-width="1" stroke-dasharray="5 4"/>
<rect x="170.0" y="182.0" width="54.0" height="324.0" fill="#5b4c42" fill-opacity="0.82" stroke="#2b241f" stroke-width="1"/>
<rect x="530.0" y="182.0" width="54.0" height="324.0" fill="#5b4c42" fill-opacity="0.82" stroke="#2b241f" stroke-width="1"/>
<rect x="242.0" y="254.0" width="54.0" height="18.0" fill="#5b4c42" fill-opacity="0.82" stroke="#2b241f" stroke-width="1"/>
<polyline points="368.0,614.0 368.0,488.0 350.0,380.0 368.0,272.0 368.0,74.0" fill="none" stroke="#8a6f47" stroke-width="4" stroke-linecap="round" stroke-linejoin="round" opacity="0.92"/>
<polygon points="368.0,606.0 376.0,621.0 360.0,621.0" fill="#225ea8" stroke="#1b1714" stroke-width="1"/>
<rect x="376.0" y="605.0" width="68.2" height="14" rx="2" fill="#fffaf0" fill-opacity="0.86"/>
<text x="379.0" y="616.0" font-size="10" font-weight="400" fill="#241f1a">TRN-HOM-020</text>
<polygon points="368.0,66.0 376.0,81.0 360.0,81.0" fill="#225ea8" stroke="#1b1714" stroke-width="1"/>
<rect x="376.0" y="65.0" width="68.2" height="14" rx="2" fill="#fffaf0" fill-opacity="0.86"/>
<text x="379.0" y="76.0" font-size="10" font-weight="400" fill="#241f1a">TRN-HOM-021</text>
<polygon points="368.0,282.0 376.0,290.0 368.0,298.0 360.0,290.0" fill="#7b2cbf" stroke="#1b1714" stroke-width="1"/>
<rect x="376.0" y="281.0" width="68.2" height="14" rx="2" fill="#fffaf0" fill-opacity="0.86"/>
<text x="379.0" y="292.0" font-size="10" font-weight="400" fill="#241f1a">EVT-HOM-020</text>
<text x="738.0" y="60.0" font-size="16" font-weight="700" fill="#241f1a">Legend</text>
<rect x="738" y="73" width="14" height="14" fill="#d9e9c8" stroke="#1b1714" stroke-width="1"/>
<text x="762.0" y="84.0" font-size="11" font-weight="400" fill="#241f1a">Walkable</text>
<rect x="738" y="95" width="14" height="14" fill="#726658" stroke="#1b1714" stroke-width="1"/>
<text x="762.0" y="106.0" font-size="11" font-weight="400" fill="#241f1a">Blocked</text>
<rect x="738" y="117" width="14" height="14" fill="#eddc91" stroke="#1b1714" stroke-width="1"/>
<text x="762.0" y="128.0" font-size="11" font-weight="400" fill="#241f1a">Conditional</text>
<rect x="738" y="139" width="14" height="14" fill="#76a9e0" fill-opacity="0.25" stroke="#76a9e0" stroke-width="2" stroke-dasharray="3 2"/>
<text x="762.0" y="150.0" font-size="11" font-weight="400" fill="#241f1a">Traversable zone</text>
<rect x="738" y="161" width="14" height="14" fill="#e8a6a1" fill-opacity="0.25" stroke="#e8a6a1" stroke-width="2" stroke-dasharray="3 2"/>
<text x="762.0" y="172.0" font-size="11" font-weight="400" fill="#241f1a">Encounter / special region</text>
<polygon points="745,181 753,195 737,195" fill="#225ea8" stroke="#1b1714" stroke-width="1"/>
<text x="762.0" y="194.0" font-size="11" font-weight="400" fill="#241f1a">Transfer</text>
<circle cx="745" cy="211" r="7" fill="#2a9d8f" stroke="#1b1714" stroke-width="1"/>
<text x="762.0" y="216.0" font-size="11" font-weight="400" fill="#241f1a">NPC</text>
<rect x="739" y="226" width="13" height="13" fill="#c47f00" stroke="#1b1714" stroke-width="1"/>
<text x="762.0" y="238.0" font-size="11" font-weight="400" fill="#241f1a">Treasure</text>
<polygon points="745,246 753,254 745,262 737,254" fill="#7b2cbf" stroke="#1b1714" stroke-width="1"/>
<text x="762.0" y="260.0" font-size="11" font-weight="400" fill="#241f1a">Event anchor</text>
<text x="738.0" y="296.0" font-size="14" font-weight="700" fill="#241f1a">Intent</text>
<text x="738.0" y="314.0" font-size="10" font-weight="400" fill="#685f55">Connect Sealed Node Upper to the</text>
<text x="738.0" y="332.0" font-size="10" font-weight="400" fill="#685f55">Guardian Chamber through the first</text>
<text x="738.0" y="350.0" font-size="10" font-weight="400" fill="#685f55">clearly artificial route.</text>
<text x="738.0" y="378.0" font-size="14" font-weight="700" fill="#241f1a">Visual Tone</text>
<text x="738.0" y="396.0" font-size="10" font-weight="400" fill="#685f55">cave-machine corridor with cables,</text>
<text x="738.0" y="410.0" font-size="10" font-weight="400" fill="#685f55">glass surfaces, and relay-line</text>
<text x="738.0" y="424.0" font-size="10" font-weight="400" fill="#685f55">markings</text>
<text x="26.0" y="648.0" font-size="10" font-weight="400" fill="#685f55">Generated from BP-SCR-HOM-SND-002-001 - guide only, not final art</text>
</svg>
